<svg width="206" height="126" viewBox="0 0 206 126" fill="none" xmlns="http://www.w3.org/2000/svg">
<circle cx="7.11169" cy="7.11169" r="7.11169" transform="matrix(-1 0 0 1 136.005 0)" fill="url(#paint0_radial_2994_40417)"/>
<circle opacity="0.65" cx="3.25136" cy="3.25136" r="3.25136" transform="matrix(-1 0 0 1 205.016 59)" fill="url(#paint1_radial_2994_40417)"/>
<circle opacity="0.65" cx="6.55024" cy="6.55024" r="6.55024" transform="matrix(-1 0 0 1 13.1006 112)" fill="url(#paint2_radial_2994_40417)"/>
<circle cx="2.29935" cy="2.29935" r="2.29935" transform="matrix(-1 0 0 1 173.061 30.0703)" fill="url(#paint3_radial_2994_40417)"/>
<circle cx="2.43295" cy="2.43295" r="2.43295" transform="matrix(-1 0 0 1 21.0947 47.4824)" fill="url(#paint4_radial_2994_40417)"/>
<circle opacity="0.63" cx="2.2458" cy="2.2458" r="2.2458" transform="matrix(-1 0 0 1 192.898 97.3184)" fill="url(#paint5_radial_2994_40417)"/>
<defs>
<radialGradient id="paint0_radial_2994_40417" cx="0" cy="0" r="1" gradientUnits="userSpaceOnUse" gradientTransform="translate(7.11169 7.11169) rotate(90) scale(7.11169)">
<stop stop-color="#A6DFFF"/>
<stop offset="1" stop-color="#7CCCF9"/>
</radialGradient>
<radialGradient id="paint1_radial_2994_40417" cx="0" cy="0" r="1" gradientUnits="userSpaceOnUse" gradientTransform="translate(3.25136 3.25136) rotate(90) scale(3.25136)">
<stop stop-color="#A6DFFF"/>
<stop offset="1" stop-color="#7CCCF9"/>
</radialGradient>
<radialGradient id="paint2_radial_2994_40417" cx="0" cy="0" r="1" gradientUnits="userSpaceOnUse" gradientTransform="translate(6.55024 6.55024) rotate(90) scale(6.55024)">
<stop stop-color="#A6DFFF"/>
<stop offset="1" stop-color="#7CCCF9"/>
</radialGradient>
<radialGradient id="paint3_radial_2994_40417" cx="0" cy="0" r="1" gradientUnits="userSpaceOnUse" gradientTransform="translate(2.29935 2.29935) rotate(90) scale(2.29935)">
<stop stop-color="#A6DFFF" stop-opacity="0.71"/>
<stop offset="1" stop-color="#A6DFFF"/>
</radialGradient>
<radialGradient id="paint4_radial_2994_40417" cx="0" cy="0" r="1" gradientUnits="userSpaceOnUse" gradientTransform="translate(2.43295 2.43295) rotate(90) scale(2.43295)">
<stop stop-color="#A6DFFF" stop-opacity="0.71"/>
<stop offset="1" stop-color="#A6DFFF"/>
</radialGradient>
<radialGradient id="paint5_radial_2994_40417" cx="0" cy="0" r="1" gradientUnits="userSpaceOnUse" gradientTransform="translate(2.2458 2.2458) rotate(90) scale(2.2458)">
<stop stop-color="#A6DFFF"/>
<stop offset="1" stop-color="#A6DFFF"/>
</radialGradient>
</defs>
</svg>
